<svg xmlns="http://www.w3.org/2000/svg" viewBox="0 0 256 256" width="256" height="256" fill="none" stroke="currentColor" role="img" aria-label="Nyu, the UwUMirror mirror cat">
  <title>Nyu (mono)</title>
  <!-- One colour, outlines only: the oval frame, the glass as a face, the handle and the gem. -->
  <g stroke-width="9" stroke-linejoin="round" stroke-linecap="round">
    <path d="M69 73 L80 36 L97 60"/>
    <path d="M159 60 L176 36 L187 73"/>
    <ellipse cx="128" cy="142" rx="100" ry="86"/>
    <path d="M114 227 V236 A12 12 0 0 0 126 248 H130 A12 12 0 0 0 142 236 V227"/>
  </g>
  <ellipse cx="128" cy="146" rx="80" ry="64" stroke-width="7"/>
  <g stroke-width="8" stroke-linecap="round" stroke-linejoin="round">
    <path d="M88 142 Q102 160 116 142"/>
    <path d="M140 142 Q154 160 168 142"/>
    <path d="M112 170 q8 13 16 0 q8 13 16 0"/>
  </g>
  <path d="M128 58 L136 66 L128 74 L120 66 Z" fill="currentColor" stroke="none"/>
  <path d="M66 126 Q74 102 100 92" stroke-width="6" stroke-linecap="round"/>
</svg>
